<svg xmlns="http://www.w3.org/2000/svg" width="480" height="480" viewBox="0 0 480 480">
<rect width="480" height="480" fill="#0a0a12"/>
<g transform="translate(240.0,240.0)">
<!-- CAB Filigree Earring | Diameter: 20mm -->
<circle r="120.0" fill="none" stroke="#7a6010" stroke-width="1.2"/>
<circle r="115.19999999999999" fill="none" stroke="#D4AF37" stroke-width="9.600000000000001"/>
<ellipse cx="74.40" cy="0.00" rx="31.20" ry="39.60" fill="#2a1e04" stroke="#D4AF37" stroke-width="0.8" transform="rotate(0.0,74.40,0.00)"/>
<ellipse cx="37.20" cy="64.43" rx="31.20" ry="39.60" fill="#2a1e04" stroke="#D4AF37" stroke-width="0.8" transform="rotate(60.0,37.20,64.43)"/>
<ellipse cx="-37.20" cy="64.43" rx="31.20" ry="39.60" fill="#2a1e04" stroke="#D4AF37" stroke-width="0.8" transform="rotate(120.0,-37.20,64.43)"/>
<ellipse cx="-74.40" cy="0.00" rx="31.20" ry="39.60" fill="#2a1e04" stroke="#D4AF37" stroke-width="0.8" transform="rotate(180.0,-74.40,0.00)"/>
<ellipse cx="-37.20" cy="-64.43" rx="31.20" ry="39.60" fill="#2a1e04" stroke="#D4AF37" stroke-width="0.8" transform="rotate(240.0,-37.20,-64.43)"/>
<ellipse cx="37.20" cy="-64.43" rx="31.20" ry="39.60" fill="#2a1e04" stroke="#D4AF37" stroke-width="0.8" transform="rotate(300.0,37.20,-64.43)"/>
<circle r="21.60" fill="#D4AF37" stroke="#F0C040" stroke-width="0.5"/>
<circle cx="0" cy="-125.0" r="2" fill="none" stroke="#C0C0C0" stroke-width="1.5"/>
<line x1="0" y1="-120.0" x2="0" y2="-123.0" stroke="#C0C0C0" stroke-width="1.5"/>
<line x1="-120.0" y1="128.0" x2="120.0" y2="128.0" stroke="#505050" stroke-width="0.4"/>
<text x="0" y="135.0" text-anchor="middle" font-size="30.0" fill="#888" font-family="Arial">Ø 20 mm</text>
<text x="0" y="-132.0" text-anchor="middle" font-size="24" fill="#D4AF37" font-family="Arial Bold">EARRING · 20mm · 22K Gold</text>
</g></svg>