<svg xmlns="http://www.w3.org/2000/svg" width="520" height="620" viewBox="0 0 520 620">
<rect width="520" height="620" fill="#0a0a12"/>
<g transform="translate(260.0,210.0)" stroke-linecap="round">
<!-- CAB Filigree Pendant | Diameter: 32mm | All units mm -->
<circle r="160.0" fill="none" stroke="#7a6010" stroke-width="1.5"/>
<circle r="156.0" fill="none" stroke="#D4AF37" stroke-width="8.0"/>
<ellipse cx="115.20" cy="0.00" rx="33.60" ry="44.80" fill="#2a1e04" stroke="#D4AF37" stroke-width="0.8" transform="rotate(0.0,115.20,0.00)"/>
<ellipse cx="81.46" cy="81.46" rx="33.60" ry="44.80" fill="#2a1e04" stroke="#D4AF37" stroke-width="0.8" transform="rotate(45.0,81.46,81.46)"/>
<ellipse cx="0.00" cy="115.20" rx="33.60" ry="44.80" fill="#2a1e04" stroke="#D4AF37" stroke-width="0.8" transform="rotate(90.0,0.00,115.20)"/>
<ellipse cx="-81.46" cy="81.46" rx="33.60" ry="44.80" fill="#2a1e04" stroke="#D4AF37" stroke-width="0.8" transform="rotate(135.0,-81.46,81.46)"/>
<ellipse cx="-115.20" cy="0.00" rx="33.60" ry="44.80" fill="#2a1e04" stroke="#D4AF37" stroke-width="0.8" transform="rotate(180.0,-115.20,0.00)"/>
<ellipse cx="-81.46" cy="-81.46" rx="33.60" ry="44.80" fill="#2a1e04" stroke="#D4AF37" stroke-width="0.8" transform="rotate(225.0,-81.46,-81.46)"/>
<ellipse cx="-0.00" cy="-115.20" rx="33.60" ry="44.80" fill="#2a1e04" stroke="#D4AF37" stroke-width="0.8" transform="rotate(270.0,-0.00,-115.20)"/>
<ellipse cx="81.46" cy="-81.46" rx="33.60" ry="44.80" fill="#2a1e04" stroke="#D4AF37" stroke-width="0.8" transform="rotate(315.0,81.46,-81.46)"/>
<ellipse cx="66.52" cy="27.55" rx="22.40" ry="28.80" fill="#1a1204" stroke="#A08028" stroke-width="0.6" transform="rotate(22.5,66.52,27.55)"/>
<ellipse cx="27.55" cy="66.52" rx="22.40" ry="28.80" fill="#1a1204" stroke="#A08028" stroke-width="0.6" transform="rotate(67.5,27.55,66.52)"/>
<ellipse cx="-27.55" cy="66.52" rx="22.40" ry="28.80" fill="#1a1204" stroke="#A08028" stroke-width="0.6" transform="rotate(112.5,-27.55,66.52)"/>
<ellipse cx="-66.52" cy="27.55" rx="22.40" ry="28.80" fill="#1a1204" stroke="#A08028" stroke-width="0.6" transform="rotate(157.5,-66.52,27.55)"/>
<ellipse cx="-66.52" cy="-27.55" rx="22.40" ry="28.80" fill="#1a1204" stroke="#A08028" stroke-width="0.6" transform="rotate(202.5,-66.52,-27.55)"/>
<ellipse cx="-27.55" cy="-66.52" rx="22.40" ry="28.80" fill="#1a1204" stroke="#A08028" stroke-width="0.6" transform="rotate(247.5,-27.55,-66.52)"/>
<ellipse cx="27.55" cy="-66.52" rx="22.40" ry="28.80" fill="#1a1204" stroke="#A08028" stroke-width="0.6" transform="rotate(292.5,27.55,-66.52)"/>
<ellipse cx="66.52" cy="-27.55" rx="22.40" ry="28.80" fill="#1a1204" stroke="#A08028" stroke-width="0.6" transform="rotate(337.5,66.52,-27.55)"/>
<circle r="35.20" fill="#111" stroke="#C0C0C0" stroke-width="1.2"/>
<circle r="24.00" fill="none" stroke="#808080" stroke-dasharray="2,2" stroke-width="0.6"/>
<text x="0" y="2" text-anchor="middle" font-size="20" fill="#606060" font-family="Arial">CAB</text>
<polygon points="-80.0,-160.0 80.0,-160.0 0,-220.8" fill="#1a1204" stroke="#D4AF37" stroke-width="1.2"/>
<line x1="-160.0" y1="172.0" x2="160.0" y2="172.0" stroke="#505050" stroke-width="0.5"/>
<line x1="-160.0" y1="168.0" x2="-160.0" y2="176.0" stroke="#505050" stroke-width="0.5"/>
<line x1="160.0" y1="168.0" x2="160.0" y2="176.0" stroke="#505050" stroke-width="0.5"/>
<text x="0" y="180.0" text-anchor="middle" font-size="25.0" fill="#888" font-family="Arial">Ø 32 mm</text>
<text x="0" y="-224.8" text-anchor="middle" font-size="20" fill="#D4AF37" font-family="Arial Bold">PENDANT · 32mm · 22K Gold</text>
</g></svg>